<svg id="visual" viewBox="0 0 1440 600" width="1440" height="600" xmlns="http://www.w3.org/2000/svg" xmlns:xlink="http://www.w3.org/1999/xlink" version="1.1"><path d="M0 439L34.3 431.2C68.7 423.3 137.3 407.7 205.8 390.5C274.3 373.3 342.7 354.7 411.2 349C479.7 343.3 548.3 350.7 617 366.7C685.7 382.7 754.3 407.3 823 422.8C891.7 438.3 960.3 444.7 1028.8 443.8C1097.3 443 1165.7 435 1234.2 414.8C1302.7 394.7 1371.3 362.3 1405.7 346.2L1440 330L1440 601L1405.7 601C1371.3 601 1302.7 601 1234.2 601C1165.7 601 1097.3 601 1028.8 601C960.3 601 891.7 601 823 601C754.3 601 685.7 601 617 601C548.3 601 479.7 601 411.2 601C342.7 601 274.3 601 205.8 601C137.3 601 68.7 601 34.3 601L0 601Z" fill="#ccc3d0" stroke-linecap="round" stroke-linejoin="miter"></path></svg>