<svg id="visual" viewBox="0 0 1440 900" width="1440" height="900" xmlns="http://www.w3.org/2000/svg" xmlns:xlink="http://www.w3.org/1999/xlink" version="1.1"><path d="M0 543L34.3 545C68.7 547 137.3 551 205.8 527.2C274.3 503.3 342.7 451.7 411.2 471.5C479.7 491.3 548.3 582.7 617 576.2C685.7 569.7 754.3 465.3 823 449.8C891.7 434.3 960.3 507.7 1028.8 554.7C1097.3 601.7 1165.7 622.3 1234.2 605.7C1302.7 589 1371.3 535 1405.7 508L1440 481L1440 0L1405.7 0C1371.3 0 1302.7 0 1234.2 0C1165.7 0 1097.3 0 1028.8 0C960.3 0 891.7 0 823 0C754.3 0 685.7 0 617 0C548.3 0 479.7 0 411.2 0C342.7 0 274.3 0 205.8 0C137.3 0 68.7 0 34.3 0L0 0Z" fill="#9261EA" stroke-linecap="round" stroke-linejoin="miter"></path></svg>