<svg id="visual" viewBox="0 0 1440 600" width="1440" height="600" xmlns="http://www.w3.org/2000/svg" xmlns:xlink="http://www.w3.org/1999/xlink" version="1.1"><path d="M0 413L48 420.5C96 428 192 443 288 443.7C384 444.3 480 430.7 576 422.5C672 414.3 768 411.7 864 423.2C960 434.7 1056 460.3 1152 460.8C1248 461.3 1344 436.7 1392 424.3L1440 412L1440 601L1392 601C1344 601 1248 601 1152 601C1056 601 960 601 864 601C768 601 672 601 576 601C480 601 384 601 288 601C192 601 96 601 48 601L0 601Z" fill="#8b8bff" stroke-linecap="round" stroke-linejoin="miter"></path></svg>