<svg id="visual" viewBox="0 0 1440 1200" width="1440" height="1200" xmlns="http://www.w3.org/2000/svg" xmlns:xlink="http://www.w3.org/1999/xlink" version="1.1"><path d="M0 704L48 708C96 712 192 720 288 712.5C384 705 480 682 576 699.5C672 717 768 775 864 785.8C960 796.7 1056 760.3 1152 748.5C1248 736.7 1344 749.3 1392 755.7L1440 762L1440 0L1392 0C1344 0 1248 0 1152 0C1056 0 960 0 864 0C768 0 672 0 576 0C480 0 384 0 288 0C192 0 96 0 48 0L0 0Z" fill="#5a0199" stroke-linecap="round" stroke-linejoin="miter"></path></svg>